<svg xmlns="http://www.w3.org/2000/svg" version="1.1" xmlns:xlink="http://www.w3.org/1999/xlink" xmlns:svgjs="http://svgjs.dev/svgjs" viewBox="0 0 2400 800"><g stroke-width="1.5" stroke="#44403c" fill="none" stroke-linecap="round"><path d="M 0 936 Q 600 -100 1200 400 Q 1800 900 2400 936" opacity="0.05"></path><path d="M 0 819 Q 600 -100 1200 400 Q 1800 900 2400 819" opacity="0.19"></path><path d="M 0 702 Q 600 -100 1200 400 Q 1800 900 2400 702" opacity="0.32"></path><path d="M 0 585 Q 600 -100 1200 400 Q 1800 900 2400 585" opacity="0.46"></path><path d="M 0 468 Q 600 -100 1200 400 Q 1800 900 2400 468" opacity="0.59"></path><path d="M 0 351 Q 600 -100 1200 400 Q 1800 900 2400 351" opacity="0.73"></path><path d="M 0 234 Q 600 -100 1200 400 Q 1800 900 2400 234" opacity="0.5"></path></g></svg>